<svg width="32" height="32" viewBox="0 0 32 32" xmlns="http://www.w3.org/2000/svg">
    <!-- Arkaplan -->
    <circle cx="16" cy="16" r="15" fill="#FF69B4"/>
    
    <!-- Anahtar -->
    <g transform="translate(16, 8)" fill="#FFD700">
        <circle cx="0" cy="0" r="3" fill="none" stroke="#FFD700" stroke-width="1"/>
        <rect x="-0.5" y="3" width="1" height="8"/>
        <rect x="0.5" y="8" width="2" height="1"/>
        <rect x="0.5" y="10" width="1.5" height="1"/>
    </g>
    
    <!-- Sevimli Kedi (Sol) -->
    <g fill="#FFFFFF" transform="translate(8, 20)">
        <circle cx="0" cy="0" r="2"/>
        <polygon points="-1,-2 0,-4 1,-2"/>
        <circle cx="-0.5" cy="-0.5" r="0.3" fill="#C02942"/>
    </g>
    
    <!-- Sevimli Köpek (Sağ) -->
    <g fill="#FFFFFF" transform="translate(24, 20)">
        <circle cx="0" cy="0" r="2.5"/>
        <ellipse cx="-1.5" cy="-1" rx="0.8" ry="1.2"/>
        <ellipse cx="1.5" cy="-1" rx="0.8" ry="1.2"/>
        <circle cx="-0.5" cy="-0.5" r="0.3" fill="#C02942"/>
        <circle cx="0.5" cy="-0.5" r="0.3" fill="#C02942"/>
    </g>
    
    <!-- Kalp -->
    <g transform="translate(16, 26)">
        <path d="M0 2 C-1 0.5, -2 0.5, -2 2 C-2 0.5, -3 0.5, -2.5 2 C-2.5 3.5, 0 5, 0 5 C0 5, 2.5 3.5, 2.5 2 C3 0.5, 2 0.5, 2 2 C2 0.5, 1 0.5, 0 2 Z" 
              fill="#DC143C"/>
    </g>
</svg>
